<svg width="604" height="108" viewBox="0 0 604 108" fill="none" xmlns="http://www.w3.org/2000/svg">
<rect width="604" height="108" fill="#F7F7F7"/>
<path d="M110.432 71.368C108.745 71.368 107.043 71.3067 105.326 71.184C103.609 71.092 102.106 70.8773 100.818 70.54V39.582C101.493 39.4593 102.213 39.352 102.98 39.26C103.747 39.1373 104.529 39.0453 105.326 38.984C106.123 38.9227 106.905 38.8767 107.672 38.846C108.469 38.8153 109.221 38.8 109.926 38.8C111.858 38.8 113.652 38.9533 115.308 39.26C116.964 39.536 118.39 40.0113 119.586 40.686C120.813 41.3607 121.763 42.25 122.438 43.354C123.113 44.458 123.45 45.8227 123.45 47.448C123.45 48.9507 123.082 50.2387 122.346 51.312C121.641 52.3853 120.644 53.244 119.356 53.888C121.288 54.532 122.714 55.4827 123.634 56.74C124.554 57.9973 125.014 59.592 125.014 61.524C125.014 64.8053 123.818 67.274 121.426 68.93C119.034 70.5553 115.369 71.368 110.432 71.368ZM106.522 56.648V66.354C107.166 66.4153 107.856 66.4613 108.592 66.492C109.328 66.5227 110.003 66.538 110.616 66.538C111.812 66.538 112.916 66.4613 113.928 66.308C114.971 66.1547 115.86 65.894 116.596 65.526C117.363 65.1273 117.961 64.606 118.39 63.962C118.85 63.318 119.08 62.49 119.08 61.478C119.08 59.6687 118.421 58.4113 117.102 57.706C115.783 57.0007 113.959 56.648 111.628 56.648H106.522ZM106.522 52.094H110.616C112.824 52.094 114.557 51.7873 115.814 51.174C117.071 50.53 117.7 49.3953 117.7 47.77C117.7 46.2367 117.041 45.148 115.722 44.504C114.434 43.86 112.747 43.538 110.662 43.538C109.773 43.538 108.975 43.5533 108.27 43.584C107.595 43.6147 107.013 43.6607 106.522 43.722V52.094ZM143.332 71.69C141.155 71.69 139.284 71.3833 137.72 70.77C136.156 70.126 134.853 69.2367 133.81 68.102C132.798 66.9673 132.047 65.6333 131.556 64.1C131.066 62.5667 130.82 60.88 130.82 59.04V39.122H136.662V58.488C136.662 59.9293 136.816 61.1713 137.122 62.214C137.46 63.226 137.92 64.054 138.502 64.698C139.116 65.342 139.821 65.8173 140.618 66.124C141.446 66.4307 142.366 66.584 143.378 66.584C144.39 66.584 145.31 66.4307 146.138 66.124C146.966 65.8173 147.672 65.342 148.254 64.698C148.868 64.054 149.328 63.226 149.634 62.214C149.972 61.1713 150.14 59.9293 150.14 58.488V39.122H155.982V59.04C155.982 60.88 155.722 62.5667 155.2 64.1C154.71 65.6333 153.943 66.9673 152.9 68.102C151.888 69.2367 150.585 70.126 148.99 70.77C147.396 71.3833 145.51 71.69 143.332 71.69ZM169.19 66.216C169.528 66.2467 169.972 66.2773 170.524 66.308C171.076 66.308 171.828 66.308 172.778 66.308C176.673 66.308 179.571 65.3267 181.472 63.364C183.404 61.3707 184.37 58.5953 184.37 55.038C184.37 51.4193 183.435 48.644 181.564 46.712C179.694 44.78 176.796 43.814 172.87 43.814C171.153 43.814 169.926 43.86 169.19 43.952V66.216ZM190.442 55.038C190.442 57.798 190.013 60.2053 189.154 62.26C188.296 64.284 187.069 65.986 185.474 67.366C183.91 68.7153 182.009 69.7273 179.77 70.402C177.562 71.046 175.109 71.368 172.41 71.368C171.122 71.368 169.666 71.3067 168.04 71.184C166.415 71.092 164.866 70.8773 163.394 70.54V39.582C164.866 39.2447 166.43 39.03 168.086 38.938C169.742 38.846 171.214 38.8 172.502 38.8C175.17 38.8 177.608 39.122 179.816 39.766C182.024 40.3793 183.91 41.3607 185.474 42.71C187.069 44.0287 188.296 45.7153 189.154 47.77C190.013 49.794 190.442 52.2167 190.442 55.038ZM211.675 43.492C208.394 43.492 205.879 44.5193 204.131 46.574C202.414 48.598 201.555 51.4193 201.555 55.038C201.555 56.7553 201.754 58.3347 202.153 59.776C202.582 61.1867 203.196 62.398 203.993 63.41C204.821 64.422 205.833 65.2193 207.029 65.802C208.256 66.354 209.682 66.63 211.307 66.63C212.319 66.63 213.193 66.5993 213.929 66.538C214.665 66.446 215.248 66.3387 215.677 66.216V54.762H221.473V70.08C220.676 70.3867 219.326 70.724 217.425 71.092C215.524 71.46 213.331 71.644 210.847 71.644C208.547 71.644 206.446 71.276 204.545 70.54C202.644 69.804 201.018 68.7307 199.669 67.32C198.35 65.9093 197.323 64.1767 196.587 62.122C195.851 60.0673 195.483 57.706 195.483 55.038C195.483 52.37 195.882 50.0087 196.679 47.954C197.507 45.8993 198.626 44.1667 200.037 42.756C201.448 41.3147 203.104 40.226 205.005 39.49C206.906 38.754 208.93 38.386 211.077 38.386C212.549 38.386 213.852 38.4933 214.987 38.708C216.152 38.892 217.149 39.1067 217.977 39.352C218.805 39.5973 219.48 39.858 220.001 40.134C220.553 40.41 220.936 40.6093 221.151 40.732L219.403 45.47C218.483 44.918 217.333 44.458 215.953 44.09C214.604 43.6913 213.178 43.492 211.675 43.492ZM228.172 71V39.122H248.642V44.044H233.968V51.91H247.032V56.74H233.968V66.078H249.746V71H228.172ZM277.343 39.122V44.136H267.545V71H261.703V44.136H251.905V39.122H277.343ZM314.718 39.122V44.136H304.92V71H299.078V44.136H289.28V39.122H314.718ZM327.924 38.8C332.524 38.8 336.036 39.6433 338.458 41.33C340.912 43.0167 342.138 45.5927 342.138 49.058C342.138 53.382 340.007 56.3107 335.744 57.844C336.327 58.5493 336.986 59.408 337.722 60.42C338.458 61.432 339.21 62.536 339.976 63.732C340.743 64.8973 341.479 66.1087 342.184 67.366C342.89 68.5927 343.518 69.804 344.07 71H337.584C337.002 69.896 336.373 68.792 335.698 67.688C335.024 66.5533 334.334 65.4647 333.628 64.422C332.954 63.3487 332.279 62.352 331.604 61.432C330.93 60.4813 330.301 59.638 329.718 58.902C329.289 58.9327 328.921 58.948 328.614 58.948C328.308 58.948 328.016 58.948 327.74 58.948H324.934V71H319.138V39.582C320.549 39.2753 322.052 39.076 323.646 38.984C325.241 38.8613 326.667 38.8 327.924 38.8ZM328.338 43.814C327.112 43.814 325.977 43.86 324.934 43.952V54.256H327.464C328.875 54.256 330.117 54.1793 331.19 54.026C332.264 53.8727 333.153 53.5967 333.858 53.198C334.594 52.7993 335.146 52.2627 335.514 51.588C335.882 50.9133 336.066 50.0547 336.066 49.012C336.066 48.0307 335.882 47.2027 335.514 46.528C335.146 45.8533 334.61 45.3167 333.904 44.918C333.23 44.5193 332.417 44.2433 331.466 44.09C330.516 43.906 329.473 43.814 328.338 43.814ZM370.89 71C370.461 69.7427 370.016 68.5007 369.556 67.274C369.096 66.0473 368.651 64.79 368.222 63.502H354.79C354.361 64.79 353.916 66.0627 353.456 67.32C353.027 68.5467 352.597 69.7733 352.168 71H346.142C347.338 67.596 348.473 64.4527 349.546 61.57C350.619 58.6873 351.662 55.958 352.674 53.382C353.717 50.806 354.744 48.3527 355.756 46.022C356.768 43.6913 357.811 41.3913 358.884 39.122H364.358C365.431 41.3913 366.474 43.6913 367.486 46.022C368.498 48.3527 369.51 50.806 370.522 53.382C371.565 55.958 372.623 58.6873 373.696 61.57C374.8 64.4527 375.95 67.596 377.146 71H370.89ZM361.506 45.286C360.801 46.9113 359.988 48.8893 359.068 51.22C358.179 53.5507 357.243 56.0807 356.262 58.81H366.75C365.769 56.0807 364.818 53.5353 363.898 51.174C362.978 48.8127 362.181 46.85 361.506 45.286ZM394.58 71.69C392.188 71.69 390.041 71.322 388.14 70.586C386.238 69.85 384.628 68.7767 383.31 67.366C381.991 65.9247 380.979 64.1767 380.274 62.122C379.568 60.0673 379.216 57.706 379.216 55.038C379.216 52.37 379.614 50.0087 380.412 47.954C381.24 45.8993 382.359 44.1667 383.77 42.756C385.18 41.3147 386.836 40.226 388.738 39.49C390.639 38.754 392.678 38.386 394.856 38.386C396.174 38.386 397.37 38.4933 398.444 38.708C399.517 38.892 400.452 39.1067 401.25 39.352C402.047 39.5973 402.706 39.858 403.228 40.134C403.749 40.41 404.117 40.6093 404.332 40.732L402.63 45.47C401.894 45.01 400.836 44.5807 399.456 44.182C398.106 43.7527 396.634 43.538 395.04 43.538C393.66 43.538 392.372 43.7833 391.176 44.274C389.98 44.734 388.937 45.4393 388.048 46.39C387.189 47.3407 386.514 48.5367 386.024 49.978C385.533 51.4193 385.288 53.0907 385.288 54.992C385.288 56.6787 385.472 58.2273 385.84 59.638C386.238 61.0487 386.836 62.2753 387.634 63.318C388.431 64.33 389.443 65.1273 390.67 65.71C391.896 66.262 393.368 66.538 395.086 66.538C397.14 66.538 398.812 66.3387 400.1 65.94C401.388 65.5107 402.384 65.112 403.09 64.744L404.654 69.482C404.286 69.7273 403.78 69.9727 403.136 70.218C402.522 70.4633 401.786 70.7087 400.928 70.954C400.069 71.1687 399.103 71.3373 398.03 71.46C396.956 71.6133 395.806 71.69 394.58 71.69ZM428.79 71C427.992 69.7733 427.072 68.4853 426.03 67.136C424.987 65.7867 423.883 64.4833 422.718 63.226C421.583 61.9687 420.402 60.7727 419.176 59.638C417.949 58.5033 416.738 57.522 415.542 56.694V71H409.746V39.122H415.542V52.278C416.554 51.266 417.612 50.1927 418.716 49.058C419.82 47.8927 420.908 46.7273 421.982 45.562C423.086 44.366 424.128 43.216 425.11 42.112C426.091 41.008 426.98 40.0113 427.778 39.122H434.724C433.712 40.2873 432.638 41.4987 431.504 42.756C430.369 44.0133 429.204 45.286 428.008 46.574C426.812 47.8313 425.6 49.0887 424.374 50.346C423.178 51.6033 421.997 52.7993 420.832 53.934C422.12 54.9153 423.423 56.0653 424.742 57.384C426.091 58.672 427.41 60.0673 428.698 61.57C429.986 63.042 431.212 64.5907 432.378 66.216C433.574 67.8107 434.662 69.4053 435.644 71H428.79ZM439.709 71V39.122H460.179V44.044H445.505V51.91H458.569V56.74H445.505V66.078H461.283V71H439.709ZM475.448 38.8C480.048 38.8 483.559 39.6433 485.982 41.33C488.435 43.0167 489.662 45.5927 489.662 49.058C489.662 53.382 487.53 56.3107 483.268 57.844C483.85 58.5493 484.51 59.408 485.246 60.42C485.982 61.432 486.733 62.536 487.5 63.732C488.266 64.8973 489.002 66.1087 489.708 67.366C490.413 68.5927 491.042 69.804 491.594 71H485.108C484.525 69.896 483.896 68.792 483.222 67.688C482.547 66.5533 481.857 65.4647 481.152 64.422C480.477 63.3487 479.802 62.352 479.128 61.432C478.453 60.4813 477.824 59.638 477.242 58.902C476.812 58.9327 476.444 58.948 476.138 58.948C475.831 58.948 475.54 58.948 475.264 58.948H472.458V71H466.662V39.582C468.072 39.2753 469.575 39.076 471.17 38.984C472.764 38.8613 474.19 38.8 475.448 38.8ZM475.862 43.814C474.635 43.814 473.5 43.86 472.458 43.952V54.256H474.988C476.398 54.256 477.64 54.1793 478.714 54.026C479.787 53.8727 480.676 53.5967 481.382 53.198C482.118 52.7993 482.67 52.2627 483.038 51.588C483.406 50.9133 483.59 50.0547 483.59 49.012C483.59 48.0307 483.406 47.2027 483.038 46.528C482.67 45.8533 482.133 45.3167 481.428 44.918C480.753 44.5193 479.94 44.2433 478.99 44.09C478.039 43.906 476.996 43.814 475.862 43.814Z" fill="black"/>
</svg>
